<svg width="87" height="87" viewBox="0 0 87 87" fill="none" xmlns="http://www.w3.org/2000/svg">
<mask id="mask0" mask-type="alpha" maskUnits="userSpaceOnUse" x="0" y="0" width="87" height="87">
<circle cx="43.5" cy="43.5" r="43.5" fill="#7040CC"/>
</mask>
<g mask="url(#mask0)">
<circle cx="43.5001" cy="43.5" r="43.5" transform="rotate(-153.325 43.5001 43.5)" fill="#F5FF76"/>
<path d="M46.2837 85.6941C46.2837 85.6941 60.3189 50.7603 64.3293 47.5258C64.3293 47.5258 81.707 22.9427 86.3854 24.8841C86.3854 24.8841 52.2993 89.5757 46.9517 89.5757L46.2837 85.6941Z" fill="#117C50"/>
<path d="M36.1085 73.4006L37.7214 47.7337L35.5105 45.8433C35.5105 45.8433 35.211 41.9492 32.817 38.9533C32.817 38.9533 31.0209 35.3591 31.6199 32.9629L24.4514 19.751L32.2179 75.497L36.1085 73.4006Z" fill="#117C50"/>
<path d="M35.5105 45.8438C34.5644 47.086 33.2622 49.1043 32.5174 51.8342C31.7747 54.5597 31.9239 56.7647 31.994 57.8994C32.263 62.2811 32.4134 68.1211 32.5174 75.7962C35.7094 67.8089 38.9014 59.8204 42.0935 51.8331C39.8995 49.8374 37.7044 47.8406 35.5105 45.8438Z" fill="#117C50"/>
<path d="M-1 16.4883C-1 16.4883 13.9633 36.2575 14.5623 51.2342C14.5623 51.2342 24.6742 90.466 38.4721 89.4206L27.7295 69.2057C27.7295 69.2057 24.1384 63.8137 24.1384 60.2194C24.1384 60.2194 23.5394 56.6251 22.9414 56.6251C22.3435 56.6251 22.3424 53.0308 21.1453 52.4312C21.1453 52.4323 12.1672 16.4883 -1 16.4883Z" fill="#53C972"/>
<path d="M20.2477 9C21.7872 12.1519 23.3165 15.6489 24.7362 19.4842C25.6574 21.972 26.4487 24.3762 27.1303 26.6728C28.7975 31.4742 30.4964 37.7577 31.3204 45.2439C32.1207 52.5184 31.8652 58.8563 31.3204 63.815C31.6697 66.4793 32.3094 69.6471 33.4906 73.1011C35.35 78.5417 37.8831 82.7435 40.0002 85.6816L38.2041 89.2759C38.2041 89.2759 28.6279 77.295 29.2259 64.7144L25.0358 34.1612C25.0358 34.1612 16.0576 9.59961 20.2477 9Z" fill="#2DA56B"/>
<path d="M47.207 26.6591C47.424 25.9702 48.4504 26.1568 48.412 26.8786C48.0209 34.3387 47.5156 49.259 49.2767 55.4282C49.2767 55.4282 52.2698 66.2111 48.6776 71.6031L42.6925 70.405C42.6925 70.405 41.1349 45.9826 47.207 26.6591Z" fill="#117C50"/>
<path d="M86.3854 24.875C86.3854 24.875 86.9845 27.8708 86.3854 28.4693C83.173 32.989 79.9392 37.976 76.8093 43.4461C75.5332 45.6771 74.3373 47.8753 73.2183 50.0362C73.2183 50.0362 72.0213 54.8286 70.8242 54.8286C69.9482 59.1367 68.1589 65.2936 64.2401 71.8271C58.5444 81.3248 51.2221 86.8389 46.9529 89.5745C45.9435 89.7657 44.7951 89.9173 43.5291 89.975C41.3386 90.0746 39.4294 89.8619 37.9058 89.5745C40.8073 89.3075 45.8 88.3866 50.1008 84.7075C52.4248 82.7197 54.1734 80.9854 55.8621 76.994C57.6469 72.7729 59.8329 68.2351 62.5209 63.5151C63.979 60.9548 65.4597 58.5598 66.9348 56.3265C66.9337 56.3265 82.4949 26.3729 86.3854 24.875Z" fill="#2DA56B"/>
<path d="M37.6359 26.9814L36.3881 25.1758C36.3881 25.1758 33.2695 24.5739 34.5162 28.1863C34.5162 28.1863 39.5066 49.2577 35.7641 52.8701V55.2787V59.493C35.7641 59.493 35.1402 58.8911 35.1402 61.2986C35.1402 63.7072 35.1402 63.1042 35.1402 63.1042C35.1402 63.1042 33.8923 62.5024 33.8923 64.308L34.5162 66.1136C34.5162 66.1136 33.2684 65.5117 33.2684 67.3174L33.8923 70.3279C33.8923 70.3279 32.0205 70.9298 32.6444 73.3384L37.0109 85.9812L51.6701 75.4461C51.6701 75.4461 46.9917 67.3185 47.6156 66.1147C47.6156 66.1147 47.6156 63.1042 46.9917 63.7061C46.9917 63.7061 47.6156 60.0937 46.3677 60.6956C46.3677 60.6956 47.6156 56.4813 45.1198 56.4813C45.1198 56.4813 46.3677 52.267 45.1198 52.8689C45.1198 52.8689 44.4959 50.4603 43.248 50.4603C43.2503 50.4603 42.6263 33.6032 37.6359 26.9814Z" fill="#2DA56B"/>
<path opacity="0.8" d="M47.4807 66.2114C45.7909 67.2658 41.6053 70.1915 39.1016 75.7962C37.0388 80.4121 37.1303 84.5755 37.3055 86.5791C39.2881 84.8357 41.5838 82.5266 43.8287 79.5636C46.364 76.2182 48.0945 73.0154 49.2768 70.4031C48.6778 69.0081 48.0798 67.6098 47.4807 66.2114Z" fill="#117C50"/>
<path d="M37.6266 89.4782C37.6266 89.4782 36.7891 83.585 37.8199 83.8396L40.0116 81.8846L41.0402 78.7677L44.3577 75.7199C44.3577 75.7199 41.9942 73.4923 45.0122 72.5125C48.0302 71.5328 52.3141 63.1574 52.3141 60.7646V57.1759C52.3141 57.1759 54.7624 55.9801 54.7624 55.3816C54.7624 54.7831 54.1509 54.7831 54.1509 54.7831C54.1509 54.7831 61.4946 48.8017 60.8831 44.0161C60.8831 44.0161 62.7188 44.0161 62.1072 41.6233L75.5706 23.6779C75.5706 23.6779 78.0188 23.0794 77.4062 24.8737C77.4062 24.8737 52.99 95.4608 41.0244 89.1795L37.6266 89.4782Z" fill="#2DA56B"/>
<path d="M77.4073 24.875L68.6869 47.7599C66.9552 53.6486 64.4956 60.4525 60.9441 67.7339C56.6003 76.6421 51.7828 83.8918 47.4616 89.5248C46.1629 89.7782 44.568 89.9841 42.7425 89.9977C40.8673 90.0113 39.2306 89.8189 37.9036 89.5746L40.2976 87.1784C46.4624 80.1821 51.2448 72.4244 57.6549 62.6168C66.5811 48.9603 72.8996 35.9792 77.4073 24.875Z" fill="#53C972"/>
<path d="M34.2752 26.228C34.282 26.4769 34.2933 26.8378 34.3136 27.2711C34.4222 29.6255 34.6708 31.8373 34.9127 33.2616C35.3705 35.961 36.1346 37.7768 36.4647 38.7306C37.37 41.3508 37.8312 45.6782 35.5118 53.0308V59.6209C35.5118 59.6209 34.3148 59.6209 34.9127 63.2152C34.9127 63.2152 33.1166 63.8148 34.3136 66.211C34.3136 66.211 32.5176 64.4133 33.7146 70.4049C33.7146 70.4049 31.7693 71.3779 33.0409 74.4857C34.4628 78.9161 35.8837 83.3475 37.3056 87.7779C36.5076 83.584 35.7096 79.3912 34.9116 75.1973C34.6471 74.5547 34.3012 73.5014 34.3125 72.2015C34.3317 69.9875 35.3705 68.8878 36.1086 66.211C36.3618 65.2935 36.4805 64.1893 36.7077 62.0171C36.9383 59.8098 37.1926 56.7643 37.3067 53.0308C37.9307 49.8393 38.4631 45.2754 37.9058 39.8517C37.3011 33.9823 35.6497 29.3234 34.2752 26.228Z" fill="#53C972"/>
<path d="M60.9567 44.795C60.855 44.7916 60.8742 44.6207 60.7148 44.3028C60.5814 44.0381 60.4718 43.9668 60.508 43.8775C60.5328 43.8186 60.5984 43.8073 60.8629 43.7462C61.3026 43.6467 61.3501 43.6252 61.3953 43.6795C61.5038 43.8107 61.4077 44.149 61.3433 44.3119C61.2641 44.5087 61.0912 44.7995 60.9567 44.795Z" fill="#63D37E"/>
<path d="M59.6376 48.8052C59.5359 48.8018 59.5551 48.631 59.3957 48.3131C59.2623 48.0484 59.1527 47.9771 59.1889 47.8877C59.2137 47.8289 59.2793 47.8176 59.5438 47.7565C59.9835 47.6569 60.031 47.6354 60.0762 47.6897C60.1847 47.821 60.0886 48.1592 60.0242 48.3221C59.9462 48.519 59.7721 48.8098 59.6376 48.8052Z" fill="#63D37E"/>
<path d="M62.2858 42.0152C62.1841 42.0118 62.2033 41.841 62.0439 41.5231C61.9105 41.2583 61.8009 41.187 61.8371 41.0977C61.8619 41.0388 61.9275 41.0275 62.192 40.9664C62.6317 40.8669 62.6792 40.8454 62.7244 40.8997C62.8329 41.0309 62.7368 41.3692 62.6724 41.5321C62.5944 41.729 62.4203 42.0197 62.2858 42.0152Z" fill="#63D37E"/>
<path d="M30.7352 40.1685C30.8267 40.1244 30.8889 40.2839 31.1794 40.4887C31.4213 40.6595 31.5524 40.6708 31.5614 40.7681C31.5682 40.8315 31.5151 40.8722 31.3094 41.051C30.968 41.3451 30.9364 41.387 30.8708 41.3598C30.7137 41.2942 30.6391 40.9514 30.621 40.7772C30.5973 40.5656 30.6142 40.2273 30.7352 40.1685Z" fill="#63D37E"/>
<path d="M29.6905 35.4364C29.7832 35.3911 29.8442 35.5518 30.1359 35.7577C30.3789 35.9297 30.5089 35.941 30.5179 36.0371C30.5247 36.1016 30.4716 36.1412 30.2647 36.32C29.9234 36.6141 29.8906 36.656 29.825 36.6288C29.6679 36.5632 29.5933 36.2193 29.5741 36.0462C29.5526 35.8335 29.5696 35.4952 29.6905 35.4364Z" fill="#63D37E"/>
<path d="M28.0392 29.7987C28.1047 29.7613 28.1579 29.8756 28.3805 30.0102C28.5659 30.1234 28.662 30.1245 28.6744 30.1946C28.6823 30.241 28.6462 30.2738 28.5037 30.4141C28.2698 30.6472 28.2472 30.6789 28.1986 30.6619C28.081 30.6223 28.0087 30.3745 27.9861 30.2489C27.9578 30.0962 27.9533 29.8473 28.0392 29.7987Z" fill="#63D37E"/>
<path d="M31.1736 43.5274C31.2652 43.4833 31.3274 43.6428 31.6179 43.8476C31.8598 44.0184 31.9909 44.0297 31.9999 44.127C32.0067 44.1904 31.9536 44.2311 31.7478 44.4099C31.4065 44.704 31.3748 44.7459 31.3093 44.7187C31.1522 44.6531 31.0776 44.3103 31.0595 44.1361C31.0357 43.9245 31.0527 43.5862 31.1736 43.5274Z" fill="#63D37E"/>
<path d="M31.211 47.6319C31.3026 47.5878 31.3647 47.7473 31.6552 47.9521C31.8971 48.1229 32.0282 48.1342 32.0373 48.2315C32.0441 48.2949 31.9909 48.3356 31.7852 48.5143C31.4438 48.8085 31.4122 48.8504 31.3466 48.8232C31.1895 48.7576 31.1149 48.4148 31.0968 48.2406C31.0731 48.029 31.0901 47.6907 31.211 47.6319Z" fill="#63D37E"/>
<path d="M31.5816 52.3702C31.6732 52.3261 31.7353 52.4856 32.0258 52.6903C32.2677 52.8612 32.3988 52.8725 32.4079 52.9698C32.4147 53.0331 32.3615 53.0739 32.1558 53.2526C31.8144 53.5468 31.7828 53.5886 31.7172 53.5615C31.5601 53.4959 31.4855 53.1531 31.4674 52.9788C31.4437 52.7673 31.4607 52.429 31.5816 52.3702Z" fill="#63D37E"/>
<path d="M54.8109 55.021C54.7092 55.0177 54.7284 54.8468 54.5691 54.5289C54.4357 54.2642 54.326 54.1929 54.3622 54.1035C54.3871 54.0447 54.4526 54.0334 54.7171 53.9723C55.1568 53.8727 55.2043 53.8512 55.2495 53.9055C55.358 54.0368 55.2619 54.375 55.1975 54.538C55.1195 54.7348 54.9466 55.0256 54.8109 55.021Z" fill="#63D37E"/>
<path d="M52.599 58.0894C52.4973 58.086 52.5165 57.9152 52.3571 57.5973C52.2238 57.3325 52.1141 57.2613 52.1503 57.1719C52.1752 57.1131 52.2407 57.1017 52.5052 57.0406C52.9449 56.9411 52.9924 56.9196 53.0376 56.9739C53.1461 57.1051 53.05 57.4434 52.9856 57.6063C52.9076 57.8032 52.7347 58.0939 52.599 58.0894Z" fill="#63D37E"/>
<path d="M50.197 66.8108C50.0941 66.8074 50.1145 66.6366 49.954 66.3176C49.8195 66.0517 49.7098 65.9804 49.7471 65.8899C49.772 65.83 49.8375 65.8187 50.1032 65.7587C50.544 65.658 50.5915 65.6376 50.6367 65.692C50.7452 65.8232 50.6491 66.1626 50.5847 66.3255C50.5056 66.5235 50.3315 66.8154 50.197 66.8108Z" fill="#63D37E"/>
<path d="M47.3385 71.188C47.2368 71.1846 47.256 71.0138 47.0966 70.6959C46.9633 70.4312 46.8536 70.3599 46.8898 70.2705C46.9147 70.2117 46.9802 70.2004 47.2447 70.1393C47.6844 70.0397 47.7319 70.0182 47.7771 70.0725C47.8856 70.2038 47.7895 70.542 47.7251 70.705C47.6471 70.9018 47.4742 71.1926 47.3385 71.188Z" fill="#63D37E"/>
<path d="M43.8229 74.2508C43.6895 74.2462 43.7166 74.0245 43.5075 73.6104C43.3334 73.2654 43.191 73.1726 43.2385 73.0561C43.2701 72.9791 43.356 72.9644 43.7008 72.8852C44.2727 72.7551 44.3349 72.728 44.3937 72.7992C44.535 72.9701 44.4106 73.4102 44.3259 73.6217C44.2253 73.8786 43.9992 74.2576 43.8229 74.2508Z" fill="#63D37E"/>
<path d="M42.9718 77.8855C42.8384 77.881 42.8655 77.6593 42.6564 77.2452C42.4824 76.9001 42.3399 76.8074 42.3874 76.6908C42.4191 76.6139 42.505 76.5992 42.8497 76.52C43.4217 76.3899 43.4838 76.3627 43.5426 76.434C43.6839 76.6048 43.5596 77.0449 43.4748 77.2565C43.3731 77.5133 43.147 77.8923 42.9718 77.8855Z" fill="#63D37E"/>
<path d="M40.8775 79.7513C40.7442 79.7467 40.7713 79.525 40.5622 79.1109C40.3881 78.7658 40.2457 78.6731 40.2932 78.5565C40.3248 78.4796 40.4107 78.4649 40.7555 78.3857C41.3274 78.2556 41.3896 78.2285 41.4484 78.2997C41.5897 78.4706 41.4653 78.9107 41.3805 79.1222C41.2788 79.379 41.0527 79.758 40.8775 79.7513Z" fill="#63D37E"/>
<path d="M39.9789 82.4959C39.8455 82.4913 39.8726 82.2696 39.6635 81.8555C39.4894 81.5105 39.347 81.4177 39.3945 81.3012C39.4261 81.2242 39.512 81.2095 39.8568 81.1303C40.4287 81.0002 40.4909 80.9731 40.5497 81.0444C40.691 81.2152 40.5666 81.6553 40.4819 81.8668C40.3801 82.1237 40.1552 82.5027 39.9789 82.4959Z" fill="#63D37E"/>
<path d="M37.701 84.6292C37.5677 84.6247 37.5948 84.4029 37.3857 83.9888C37.2116 83.6438 37.0692 83.551 37.1167 83.4345C37.1483 83.3575 37.2342 83.3428 37.579 83.2636C38.1509 83.1335 38.2131 83.1064 38.2719 83.1777C38.4131 83.3485 38.2888 83.7886 38.204 84.0002C38.1034 84.257 37.8774 84.6348 37.701 84.6292Z" fill="#63D37E"/>
<path d="M57.9579 50.8567C57.8595 50.8273 57.9217 50.6677 57.8448 50.3204C57.7804 50.0308 57.6923 49.9346 57.7499 49.8566C57.7883 49.8045 57.855 49.8102 58.1263 49.8181C58.5762 49.8305 58.6282 49.8215 58.6587 49.886C58.731 50.0398 58.5547 50.3442 58.4518 50.4856C58.3275 50.6553 58.0879 50.8951 57.9579 50.8567Z" fill="#63D37E"/>
</g>
</svg>
